<svg xmlns="http://www.w3.org/2000/svg" width="22" height="22" viewBox="0 0 22 22"><g transform="translate(-0.002 -0.002)"><rect width="22" height="22" transform="translate(0.002 0.002)" fill="none"/><g transform="translate(0.914 2.742)"><path d="M8.4,10.742H6.57V8.914a.914.914,0,0,0-1.828,0v1.828H2.914a.914.914,0,0,0,0,1.828H4.742V14.4a.914.914,0,1,0,1.828,0V12.57H8.4a.914.914,0,0,0,0-1.828Z" transform="translate(-2 -7.086)" fill="#6d6b73"/><path d="M30.339,29.6a11.836,11.836,0,0,0-11.882,0L18,29.874v3.61a.914.914,0,0,0,.914.914H29.882a.914.914,0,0,0,.914-.914v-3.61Zm-1.371,2.97h-9.14V30.925a10.054,10.054,0,0,1,9.14,0Z" transform="translate(-10.688 -17.947)" fill="#6d6b73"/><path d="M27.113,14.226A4.113,4.113,0,1,0,23,10.113,4.113,4.113,0,0,0,27.113,14.226Zm0-6.4a2.285,2.285,0,1,1-2.285,2.285A2.285,2.285,0,0,1,27.113,7.828Z" transform="translate(-13.403 -6)" fill="#6d6b73"/></g></g></svg>