<svg xmlns="http://www.w3.org/2000/svg" width="25" height="25" viewBox="0 0 25 25"><g transform="translate(-0.058 -0.058)"><g transform="translate(0.058 0.058)"><rect width="25" height="25" fill="none"/></g><g transform="translate(1.128 1.128)"><path d="M21.9,16.171l2.865-.781a11.983,11.983,0,0,0,0-3.855L21.9,10.753A.938.938,0,0,1,21.329,9.4l1.459-2.6a10.732,10.732,0,0,0-2.657-2.657L17.526,5.6l-.417.1a.938.938,0,0,1-.938-.677L15.39,2.157a11.983,11.983,0,0,0-3.855,0l-.781,2.865a.938.938,0,0,1-.938.677L9.4,5.6l-2.6-1.459A10.732,10.732,0,0,0,4.136,6.793L5.6,9.4a.938.938,0,0,1-.573,1.355l-2.865.781a11.983,11.983,0,0,0,0,3.855l2.865.781A.938.938,0,0,1,5.6,17.526l-1.459,2.6a10.732,10.732,0,0,0,2.657,2.657l2.6-1.459.417-.1a.938.938,0,0,1,.938.677l.781,2.865a11.982,11.982,0,0,0,3.855,0l.781-2.865a.938.938,0,0,1,.938-.677l.417.1,2.6,1.459a10.732,10.732,0,0,0,2.657-2.657l-1.459-2.6a.938.938,0,0,1,.573-1.355Zm-.625-2.032h-.1A3.178,3.178,0,0,0,19.4,15.858a2.97,2.97,0,0,0,.052,2.5h.052v.1l.781,1.3a1.563,1.563,0,0,1-.417.417l-1.3-.781h-.156a2.813,2.813,0,0,0-1.3-.313,3.126,3.126,0,0,0-2.918,2.032v.156h0l-.469,1.563H13.2l-.417-1.511h0v-.1a3.126,3.126,0,0,0-2.97-2.084,2.813,2.813,0,0,0-1.3.313H8.356l-1.3.781a1.563,1.563,0,0,1-.417-.417l.781-1.3v-.1h.052a2.97,2.97,0,0,0,.052-2.5,3.178,3.178,0,0,0-1.771-1.719H5.6l-1.511-.469V13.2L5.6,12.785h.156a3.178,3.178,0,0,0,1.771-1.719,2.97,2.97,0,0,0-.052-2.5H7.418v-.1l-.781-1.3.417-.417,1.3.781h.156a2.813,2.813,0,0,0,1.3.313A3.126,3.126,0,0,0,12.733,5.8V5.647h0L13.2,4.084h.521L14.139,5.6h0v.1a3.126,3.126,0,0,0,2.97,2.084,2.813,2.813,0,0,0,1.3-.313h.156l1.3-.781a1.563,1.563,0,0,1,.417.417l-.781,1.3v.1h-.052a2.97,2.97,0,0,0-.052,2.5,3.178,3.178,0,0,0,1.771,1.719h.156l1.511.417v.521l-1.511.417Z" transform="translate(-2 -2)" fill="#6d6b73"/><path d="M19.893,15a4.893,4.893,0,1,0,4.893,4.893A4.893,4.893,0,0,0,19.893,15Zm0,7.612a2.719,2.719,0,1,1,2.719-2.719A2.719,2.719,0,0,1,19.893,22.612Z" transform="translate(-8.432 -8.432)" fill="#6d6b73"/></g></g></svg>