<svg xmlns="http://www.w3.org/2000/svg" width="11.675" height="10.196" viewBox="0 0 11.675 10.196"><g transform="translate(-368.167 -494.902)"><g transform="translate(368.167 505.098) rotate(-90)"><path d="M5.1,1.754l-3.86,3.86A.692.692,0,0,1,.145,5.541a.765.765,0,0,1,.073-.983L4.588.224a.692.692,0,0,1,1.02,0l4.37,4.334a.765.765,0,0,1,.073.983.692.692,0,0,1-1.093.073Z" fill="#29282b"/></g><g transform="translate(373.994 505.098) rotate(-90)"><path d="M5.1,1.754l-3.86,3.86A.692.692,0,0,1,.145,5.541a.765.765,0,0,1,.073-.983L4.588.224a.692.692,0,0,1,1.02,0l4.37,4.334a.765.765,0,0,1,.073.983.692.692,0,0,1-1.093.073Z" fill="#29282b"/></g></g></svg>