<svg xmlns="http://www.w3.org/2000/svg" width="20" height="20" viewBox="0 0 20 20"><g transform="translate(0 -0.203)"><g transform="translate(0 0.203)"><rect width="20" height="20" fill="none"/></g><g transform="translate(1.765 1.785)"><path d="M25.777,4a.883.883,0,0,0-.883,1.015.927.927,0,0,0,.927.75h4.016l-5.516,5.516a.883.883,0,0,0-.088,1.236.794.794,0,0,0,.662.309.883.883,0,0,0,.618-.265L31.073,7v4.016a.927.927,0,0,0,.75.927.883.883,0,0,0,1.015-.883V4.883A.883.883,0,0,0,31.956,4Z" transform="translate(-16.185 -4)" fill="#6d6b73"/><path d="M19.7,14.824a.874.874,0,0,0-.708.874v3.289H5.665V5.665H9a.833.833,0,0,0,.833-.958A.874.874,0,0,0,8.954,4H4.833A.833.833,0,0,0,4,4.832V19.82a.833.833,0,0,0,.833.833H19.82a.833.833,0,0,0,.833-.833V15.657a.833.833,0,0,0-.958-.833Z" transform="translate(-4 -4)" fill="#6d6b73"/></g></g></svg>