<svg xmlns="http://www.w3.org/2000/svg" width="35" height="32" viewBox="0 0 35 32"><g transform="translate(10621 -817)"><rect width="35" height="32" rx="5" transform="translate(-10621 817)" fill="rgba(223,237,237,0)"/><path d="M-667.781,452.485l-5.953-13.263a.785.785,0,0,0-.724-.469.785.785,0,0,0-.723.467q-3,6.632-5.992,13.265a.79.79,0,0,0,.2.921.807.807,0,0,0,.937.085l4.988-3.019v10.406c0,.231.241.4.574.4s.574-.168.574-.4V450.45l1.889,1.151,3.1,1.887a.791.791,0,0,0,.938-.083A.79.79,0,0,0-667.781,452.485Zm-3.686-1.782-2.988-1.821-.272.163-.2.121-.193.117-3.452,2.09-1.3.786q2.705-5.99,5.413-11.982l5.376,11.979Z" transform="translate(-10444.532 37.612) rotate(-45)" fill="#29282b" stroke="#29282b" stroke-width="1"/></g></svg>