<svg xmlns="http://www.w3.org/2000/svg" width="29" height="29" viewBox="0 0 29 29"><g transform="translate(0.019 0.019)"><g transform="translate(0.073 0.073)"><rect width="29" height="29" transform="translate(-0.092 -0.092)" fill="none"/></g><g transform="translate(3.668 6.112)"><path d="M6,18.554H6a1.222,1.222,0,0,1,1.222-1.222H8.444a1.222,1.222,0,0,1,1.222,1.222h0a1.222,1.222,0,0,1-1.222,1.222H7.222A1.222,1.222,0,0,1,6,18.554Zm1.222-6.11H8.444a1.222,1.222,0,0,0,1.222-1.222h0A1.222,1.222,0,0,0,8.444,10H7.222A1.222,1.222,0,0,0,6,11.222H6A1.222,1.222,0,0,0,7.222,12.444Zm0,14.664H8.444a1.222,1.222,0,0,0,1.222-1.222h0a1.222,1.222,0,0,0-1.222-1.222H7.222A1.222,1.222,0,0,0,6,25.886H6A1.222,1.222,0,0,0,7.222,27.108Zm6.721-7.332h12.22a1.222,1.222,0,0,0,1.222-1.222h0a1.222,1.222,0,0,0-1.222-1.222H13.943a1.222,1.222,0,0,0-1.222,1.222h0A1.222,1.222,0,0,0,13.943,19.776Zm0-7.332h12.22a1.222,1.222,0,0,0,1.222-1.222h0A1.222,1.222,0,0,0,26.163,10H13.943a1.222,1.222,0,0,0-1.222,1.222h0A1.222,1.222,0,0,0,13.943,12.444Zm0,14.664h12.22a1.222,1.222,0,0,0,1.222-1.222h0a1.222,1.222,0,0,0-1.222-1.222H13.943a1.222,1.222,0,0,0-1.222,1.222h0A1.222,1.222,0,0,0,13.943,27.108Z" transform="translate(-6 -10)" fill="#6d6b73"/></g></g></svg>