<svg xmlns="http://www.w3.org/2000/svg" width="25" height="25" viewBox="0 0 25 25"><g transform="translate(-0.478 25.478) rotate(-90)"><g transform="translate(0.478 0.478)"><rect width="25" height="25" fill="none"/></g><g transform="translate(3.906 3.948)"><path d="M24.434,11.3a1.188,1.188,0,0,1-1.024,1.3H7.024A1.188,1.188,0,0,1,6,11.3H6A1.188,1.188,0,0,1,7.024,10H23.41A1.188,1.188,0,0,1,24.434,11.3Z" transform="translate(-6 -2.189)" fill="#6d6b73"/><path d="M24.226,23.3a1.3,1.3,0,0,1-1.3,1.3H7.3A1.3,1.3,0,0,1,6,23.3H6A1.3,1.3,0,0,1,7.3,22H22.925A1.3,1.3,0,0,1,24.226,23.3Z" transform="translate(-6 -22)" fill="#6d6b73"/><path d="M19.019,35.3a1.3,1.3,0,0,1-1.3,1.3H7.3A1.3,1.3,0,0,1,6,35.3H6A1.3,1.3,0,0,1,7.3,34H17.717A1.3,1.3,0,0,1,19.019,35.3Z" transform="translate(-6 -18.377)" fill="#6d6b73"/></g></g></svg>