<svg xmlns="http://www.w3.org/2000/svg" width="25" height="25" viewBox="0 0 25 25"><g transform="translate(-0.68 -0.68)"><g transform="translate(0.68 0.68)"><rect width="25" height="25" fill="none"/></g><g transform="translate(4.066 5.552)"><path d="M24.229,11.318a1.2,1.2,0,0,1-1.013,1.318H7.013A1.2,1.2,0,0,1,6,11.318H6A1.2,1.2,0,0,1,7.013,10h16.2A1.2,1.2,0,0,1,24.229,11.318Z" transform="translate(-6 -3.89)" fill="#07807e" stroke="#07807e" stroke-width="0.3"/><path d="M24.229,11.318a1.2,1.2,0,0,1-1.013,1.318H7.013A1.2,1.2,0,0,1,6,11.318H6A1.2,1.2,0,0,1,7.013,10h16.2A1.2,1.2,0,0,1,24.229,11.318Z" transform="translate(-6 2.592)" fill="#07807e" stroke="#07807e" stroke-width="0.3"/><path d="M17.32,35.132a1.132,1.132,0,0,1-1.132,1.132H7.132A1.132,1.132,0,0,1,6,35.132H6A1.132,1.132,0,0,1,7.132,34h9.056A1.132,1.132,0,0,1,17.32,35.132Z" transform="translate(-6 -34)" fill="#07807e" stroke="#07807e" stroke-width="0.3"/></g></g></svg>