<svg xmlns="http://www.w3.org/2000/svg" width="18" height="18" viewBox="0 0 18 18"><g transform="translate(0.399 0.399)"><rect width="18" height="18" transform="translate(-0.399 -0.399)" fill="none"/><g transform="translate(2.15 1.433)"><path d="M10.3,31.433v2.15H7.433v-2.15H10.3M11.017,30h-4.3A.717.717,0,0,0,6,30.717V34.3a.717.717,0,0,0,.717.717h4.3a.717.717,0,0,0,.717-.717V30.717A.717.717,0,0,0,11.017,30Z" transform="translate(-6 -20.683)" fill="#07807e"/><path d="M10.3,5.433V10.45H7.433V5.433H10.3M11.017,4h-4.3A.717.717,0,0,0,6,4.717v6.45a.717.717,0,0,0,.717.717h4.3a.717.717,0,0,0,.717-.717V4.717A.717.717,0,0,0,11.017,4Z" transform="translate(-6 -4)" fill="#07807e"/><path d="M30.3,5.433v2.15H27.433V5.433H30.3M31.017,4h-4.3A.717.717,0,0,0,26,4.717V8.3a.717.717,0,0,0,.717.717h4.3a.717.717,0,0,0,.717-.717V4.717A.717.717,0,0,0,31.017,4Z" transform="translate(-18.833 -4)" fill="#07807e"/><path d="M30.3,23.433V28.45H27.433V23.433H30.3M31.017,22h-4.3a.717.717,0,0,0-.717.717v6.45a.717.717,0,0,0,.717.717h4.3a.717.717,0,0,0,.717-.717v-6.45A.717.717,0,0,0,31.017,22Z" transform="translate(-18.833 -15.55)" fill="#07807e"/></g></g></svg>