<svg xmlns="http://www.w3.org/2000/svg" width="14" height="14.705" viewBox="0 0 14 14.705"><g transform="translate(-1.11 -0.758)"><g transform="translate(0.623 0.623)"><rect width="14" height="14" transform="translate(0.488 0.488)" fill="none"/></g><g transform="translate(1.756 0.758)"><path d="M16.286,6.378l.8-.836a.635.635,0,0,0,0-.936.6.6,0,0,0-.468-.2.668.668,0,0,0-.468.2l-.836.8a6.384,6.384,0,0,0-3.309-1.37v-.7h.668a.668.668,0,1,0,0-1.337H10a.668.668,0,0,0,0,1.337h.668v.7a6.35,6.35,0,1,0,5.615,2.34ZM11.34,15.369a5.013,5.013,0,1,1,5.013-5.013,5.013,5.013,0,0,1-5.013,5.013Z" transform="translate(-4.984 -2)" fill="#929196"/><path d="M25.676,19.008h-2.34v-2.34a.668.668,0,0,0-1.337,0v3.676h3.676a.668.668,0,0,0,0-1.337Z" transform="translate(-16.313 -11.321)" fill="#929196"/></g></g></svg>