<svg xmlns="http://www.w3.org/2000/svg" width="25" height="28" viewBox="0 0 25 28"><g transform="translate(11529 -809)"><g transform="translate(-11529.076 811.924)"><g transform="translate(0.076 0.076)"><rect width="25" height="25" fill="none"/></g><g transform="translate(1.977 0.98)"><path d="M24.61,16.273l-1.674-1.667a2.339,2.339,0,0,1-.628-1.511V9.814A7.475,7.475,0,0,0,14.462,2,7.42,7.42,0,0,0,6.616,9.814V13.46a1.351,1.351,0,0,1-.366.886L4.314,16.273A1.04,1.04,0,0,0,4,17v3.751A1.044,1.044,0,0,0,5.046,21.8h5.806a3.664,3.664,0,0,0,7.219,0h5.806a1.044,1.044,0,0,0,1.046-1.042V17A1.04,1.04,0,0,0,24.61,16.273Zm-1.779,3.438H6.092v-2.24L7.714,15.8a3.327,3.327,0,0,0,.994-2.344V9.814c0-2.761,1.517-5.73,5.754-5.73s5.754,3.073,5.754,5.73V13.1a4.47,4.47,0,0,0,1.2,2.969l1.412,1.406Z" transform="translate(-4 -2)" fill="#6d6b73"/></g></g><circle cx="5.5" cy="5.5" r="5.5" transform="translate(-11517 809)" fill="#e95f4b"/></g></svg>