<svg xmlns="http://www.w3.org/2000/svg" width="21" height="21" viewBox="0 0 21 21"><g transform="translate(-0.303 -0.303)"><rect width="21" height="21" transform="translate(0.303 0.303)" fill="none"/><g transform="translate(3.119 0.891)"><path d="M21.256,12.692H15.465V10.91h3.119a.891.891,0,0,0,.891-.891V4.673a.891.891,0,0,0-.891-.891H15.465V2.891a.891.891,0,1,0-1.782,0v.891H10.564a.891.891,0,0,0-.891.891v5.346a.891.891,0,0,0,.891.891h3.119v1.782H7.891A.891.891,0,0,0,7,13.583v5.346a.891.891,0,0,0,.891.891h5.792v.891a.891.891,0,0,0,1.782,0V19.82h5.792a.891.891,0,0,0,.891-.891V13.583A.891.891,0,0,0,21.256,12.692Zm-9.8-7.128h6.237V9.128H11.455Zm8.91,12.474H8.782V14.474H20.365Z" transform="translate(-7 -2)" fill="#6d6b73"/></g></g></svg>